<?xml version="1.0" encoding="utf-8"?>
<!-- Generator: Adobe Illustrator 25.0.0, SVG Export Plug-In . SVG Version: 6.00 Build 0)  -->
<svg version="1.1" id="Capa_1" xmlns="http://www.w3.org/2000/svg" xmlns:xlink="http://www.w3.org/1999/xlink" x="0px" y="0px"
	 viewBox="0 0 500 500" style="enable-background:new 0 0 500 500;" xml:space="preserve">
<style type="text/css">
	.st0{fill:#515151;}
</style>
<g>
	<g>
		<path class="st0" d="M346.591,421.613H210.12c-42.158,0-76.457-34.299-76.457-76.457V101.458C133.663,59.299,167.961,25,210.12,25
			h136.471c42.159,0,76.457,34.299,76.457,76.458v243.698C423.048,387.315,388.75,421.613,346.591,421.613z M210.12,64.19
			c-20.549,0-37.268,16.718-37.268,37.268v243.698c0,20.549,16.718,37.268,37.268,37.268h136.471
			c20.549,0,37.268-16.718,37.268-37.268V101.458c0-20.55-16.718-37.268-37.268-37.268H210.12z"/>
	</g>
	<g>
		<path class="st0" d="M289.88,475H153.409c-42.159,0-76.457-34.299-76.457-76.457V154.844c0-42.159,34.299-76.457,76.457-76.457
			H289.88c42.16,0,76.458,34.299,76.458,76.457v243.698C366.338,440.701,332.039,475,289.88,475z M153.409,117.577
			c-20.549,0-37.268,16.718-37.268,37.268v243.698c0,20.549,16.718,37.268,37.268,37.268H289.88
			c20.55,0,37.268-16.718,37.268-37.268V154.844c0-20.55-16.718-37.268-37.268-37.268H153.409z"/>
	</g>
</g>
</svg>
