<?xml version="1.0" encoding="utf-8"?>
<!-- Generator: Adobe Illustrator 25.0.0, SVG Export Plug-In . SVG Version: 6.00 Build 0)  -->
<svg version="1.1" id="Capa_1" xmlns="http://www.w3.org/2000/svg" xmlns:xlink="http://www.w3.org/1999/xlink" x="0px" y="0px"
	 viewBox="0 0 100 100" style="enable-background:new 0 0 100 100;" xml:space="preserve">
<style type="text/css">
	.st0{fill:#3F3F3F;}
</style>
<path class="st0" d="M77.87,0H22.13C9.91,0,0,9.91,0,22.13v55.74C0,90.09,9.91,100,22.13,100h55.74C90.09,100,100,90.09,100,77.87
	V22.13C100,9.91,90.09,0,77.87,0z M25,87.5c-6.9,0-12.5-5.6-12.5-12.5c0-6.9,5.6-12.5,12.5-12.5S37.5,68.1,37.5,75
	C37.5,81.9,31.9,87.5,25,87.5z M75,37.5c-6.9,0-12.5-5.6-12.5-12.5c0-6.9,5.6-12.5,12.5-12.5S87.5,18.1,87.5,25
	C87.5,31.9,81.9,37.5,75,37.5z"/>
</svg>
