<?xml version="1.0" encoding="utf-8"?>
<!-- Generator: Adobe Illustrator 25.0.0, SVG Export Plug-In . SVG Version: 6.00 Build 0)  -->
<svg version="1.1" id="Capa_1" xmlns="http://www.w3.org/2000/svg" xmlns:xlink="http://www.w3.org/1999/xlink" x="0px" y="0px"
	 viewBox="0 0 100 100" style="enable-background:new 0 0 100 100;" xml:space="preserve">
<style type="text/css">
	.st0{fill:#3F3F3F;}
</style>
<path class="st0" d="M77.87,0H22.13C9.91,0,0,9.91,0,22.13v55.74C0,90.09,9.91,100,22.13,100h55.74C90.09,100,100,90.09,100,77.87
	V22.13C100,9.91,90.09,0,77.87,0z M25,85c-5.52,0-10-4.48-10-10c0-5.52,4.48-10,10-10s10,4.48,10,10C35,80.52,30.52,85,25,85z
	 M25,60c-5.52,0-10-4.48-10-10c0-5.52,4.48-10,10-10s10,4.48,10,10C35,55.52,30.52,60,25,60z M25,35c-5.52,0-10-4.48-10-10
	c0-5.52,4.48-10,10-10s10,4.48,10,10C35,30.52,30.52,35,25,35z M75,85c-5.52,0-10-4.48-10-10c0-5.52,4.48-10,10-10s10,4.48,10,10
	C85,80.52,80.52,85,75,85z M75,60c-5.52,0-10-4.48-10-10c0-5.52,4.48-10,10-10s10,4.48,10,10C85,55.52,80.52,60,75,60z M75,35
	c-5.52,0-10-4.48-10-10c0-5.52,4.48-10,10-10s10,4.48,10,10C85,30.52,80.52,35,75,35z"/>
</svg>
